<?xml version="1.0" standalone="no"?>
<!DOCTYPE svg PUBLIC "-//W3C//DTD SVG 20010904//EN"
 "http://www.w3.org/TR/2001/REC-SVG-20010904/DTD/svg10.dtd">
<svg version="1.0" xmlns="http://www.w3.org/2000/svg"
 width="252.000000pt" height="120.000000pt" viewBox="0 0 252.000000 120.000000"
 preserveAspectRatio="xMidYMid meet">

<g transform="translate(0.000000,120.000000) scale(0.100000,-0.100000)"
fill="#000000" stroke="none">
<path d="M228 742 c-79 -79 -108 -115 -108 -133 0 -18 30 -54 113 -137 129
-129 142 -134 200 -74 l37 38 -23 22 c-29 27 -34 27 -57 0 l-18 -22 -81 82
c-44 44 -81 85 -81 89 0 5 35 43 78 86 l78 78 24 -26 c28 -30 28 -30 59 -4
l24 20 -43 44 c-66 67 -75 64 -202 -63z"/>
<path d="M506 674 c-18 -25 -18 -26 5 -50 l23 -25 -29 -24 -30 -24 27 -28 28
-27 40 39 c52 51 52 79 2 128 -21 20 -40 37 -42 37 -3 0 -13 -12 -24 -26z"/>
<path d="M890 669 c0 -15 5 -20 23 -17 21 3 22 -1 25 -69 3 -65 5 -73 22 -73
18 0 20 7 20 69 0 68 0 70 27 73 17 2 29 10 31 21 3 15 -6 17 -72 17 -70 0
-76 -2 -76 -21z"/>
<path d="M1060 600 l0 -90 70 0 c63 0 70 2 70 20 0 17 -7 20 -50 20 -37 0 -50
4 -50 14 0 10 14 16 42 18 31 2 44 8 46 21 3 14 -4 17 -43 17 -39 0 -46 3 -43
18 3 13 14 17 48 18 34 0 46 5 48 17 3 15 -7 17 -67 17 l-71 0 0 -90z"/>
<path d="M1249 661 c-20 -20 -29 -39 -29 -61 0 -39 47 -90 84 -90 33 0 77 21
73 34 -2 6 -23 11 -47 11 -36 0 -46 4 -56 24 -9 17 -9 30 -2 47 13 27 33 34
67 22 34 -12 53 8 27 28 -33 24 -84 18 -117 -15z"/>
<path d="M1410 600 c0 -83 1 -90 20 -90 16 0 20 7 20 35 0 34 1 35 40 35 39 0
40 -1 40 -35 0 -28 4 -35 20 -35 19 0 20 7 20 90 0 82 -2 90 -19 90 -16 0 -20
-8 -23 -37 -3 -35 -5 -37 -38 -37 -33 0 -35 2 -38 37 -3 29 -7 37 -23 37 -17
0 -19 -8 -19 -90z"/>
<path d="M1680 600 l0 -91 57 3 c46 2 59 7 61 21 3 14 -4 17 -37 17 l-41 0 0
70 c0 63 -2 70 -20 70 -19 0 -20 -7 -20 -90z"/>
<path d="M1839 661 c-20 -20 -29 -39 -29 -61 0 -46 47 -90 95 -90 44 0 95 45
95 84 0 88 -98 129 -161 67z m92 -11 c5 0 14 -12 20 -26 13 -35 -11 -74 -45
-74 -24 0 -38 12 -49 42 -8 22 31 71 50 64 8 -3 19 -6 24 -6z"/>
<path d="M2047 670 c-79 -62 -10 -179 91 -154 34 8 37 13 40 47 3 32 0 37 -17
37 -16 0 -21 -6 -21 -25 0 -21 -5 -25 -28 -25 -35 0 -52 16 -52 52 0 37 39 64
70 48 16 -9 25 -8 37 1 13 12 13 14 -3 26 -27 20 -88 16 -117 -7z"/>
<path d="M2237 670 c-68 -54 -24 -160 67 -160 13 0 38 12 55 26 49 41 41 112
-16 142 -33 18 -77 14 -106 -8z m93 -30 c11 -11 20 -29 20 -39 0 -41 -59 -68
-88 -39 -20 20 -14 65 10 82 29 20 34 20 58 -4z"/>
<path d="M1160 415 c-6 -8 -10 -19 -8 -24 1 -6 8 1 15 14 13 28 11 31 -7 10z"/>
<path d="M1210 413 c12 -18 12 -24 -1 -40 -13 -16 -13 -17 4 -4 21 17 22 35 0
52 -15 13 -15 12 -3 -8z"/>
<path d="M1430 415 c0 -8 2 -15 4 -15 2 0 6 7 10 15 3 8 1 15 -4 15 -6 0 -10
-7 -10 -15z"/>
<path d="M1555 419 c-4 -6 -5 -12 -2 -15 2 -3 7 2 10 11 7 17 1 20 -8 4z"/>
<path d="M1745 420 c3 -5 8 -10 11 -10 2 0 4 5 4 10 0 6 -5 10 -11 10 -5 0 -7
-4 -4 -10z"/>
<path d="M1800 421 c0 -5 7 -12 16 -15 14 -5 15 -4 4 9 -14 17 -20 19 -20 6z"/>
<path d="M1911 402 c-1 -28 1 -31 13 -20 8 7 10 15 6 18 -4 3 -10 12 -13 20
-3 8 -6 0 -6 -18z"/>
<path d="M1107 389 c6 -23 9 -24 16 -5 3 8 0 17 -7 19 -10 4 -12 -1 -9 -14z"/>
<path d="M1366 395 c-11 -8 -15 -15 -9 -15 6 0 16 7 23 15 16 19 11 19 -14 0z"/>
<path d="M2140 400 c0 -5 5 -10 11 -10 5 0 7 5 4 10 -3 6 -8 10 -11 10 -2 0
-4 -4 -4 -10z"/>
<path d="M1760 395 c0 -5 5 -17 10 -25 5 -8 10 -10 10 -5 0 6 -5 17 -10 25 -5
8 -10 11 -10 5z"/>
<path d="M2090 390 c-23 -7 -23 -8 -3 -9 12 -1 25 4 28 9 3 6 5 10 3 9 -2 -1
-14 -5 -28 -9z"/>
<path d="M1466 373 c-6 -14 -5 -15 5 -6 7 7 10 15 7 18 -3 3 -9 -2 -12 -12z"/>
<path d="M1550 381 c0 -10 19 -25 25 -20 1 2 -3 10 -11 17 -8 7 -14 8 -14 3z"/>
<path d="M1686 373 c-6 -14 -5 -15 5 -6 7 7 10 15 7 18 -3 3 -9 -2 -12 -12z"/>
<path d="M1830 386 c0 -2 7 -9 15 -16 9 -7 15 -8 15 -2 0 5 -7 12 -15 16 -8 3
-15 4 -15 2z"/>
<path d="M1647 369 c7 -7 15 -10 18 -7 3 3 -2 9 -12 12 -14 6 -15 5 -6 -5z"/>
</g>
</svg>
